# MagicaVoxel @ Ephtracy

# group
o 

# material
mtllib Test.mtl
usemtl palette

# normals
vn -1 0 0
vn 1 0 0
vn 0 0 1
vn 0 0 -1
vn 0 -1 0
vn 0 1 0

# texcoords
vt 0.845703 0.5
vt 0.974609 0.5
vt 0.982422 0.5

# verts
v -2 0 2
v -2 0 -1.9
v -2 3.9 1.8
v -2 3.9 -1.9
v -2 4 2
v -2 4 1.8
v -1.9 0 -1.9
v -1.9 0 -2
v -1.9 3.9 1.8
v -1.9 3.9 -1.9
v -1.9 3.9 -2
v -1.9 4 1.8
v -1.9 4 -1.9
v 1.6 0.4 1.9
v 1.6 0.4 1.8
v 1.6 3.6 1.9
v 1.6 3.6 1.8
v 1.8 0.2 2
v 1.8 0.2 1.9
v 1.8 3.8 2
v 1.8 3.8 1.9
v -1.8 0.2 2
v -1.8 0.2 1.9
v -1.8 3.8 2
v -1.8 3.8 1.9
v -1.6 0.4 1.9
v -1.6 0.4 1.8
v -1.6 3.6 1.9
v -1.6 3.6 1.8
v 1.9 0 -1.9
v 1.9 0 -2
v 1.9 3.9 1.8
v 1.9 3.9 -1.9
v 1.9 3.9 -2
v 1.9 4 1.8
v 1.9 4 -1.9
v 2 0 2
v 2 0 -1.9
v 2 3.9 1.8
v 2 3.9 -1.9
v 2 4 2
v 2 4 1.8
v -2 0 2
v -2 4 2
v -1.8 0.2 2
v -1.8 3.8 2
v 1.8 0.2 2
v 1.8 3.8 2
v 2 0 2
v 2 4 2
v -1.8 0.2 1.9
v -1.8 3.8 1.9
v -1.6 0.4 1.9
v -1.6 3.6 1.9
v 1.6 0.4 1.9
v 1.6 3.6 1.9
v 1.8 0.2 1.9
v 1.8 3.8 1.9
v -1.6 0.4 1.8
v -1.6 3.6 1.8
v -0.7 1.2 1.8
v -0.7 2.5 1.8
v -0.6 1 1.8
v -0.6 1.2 1.8
v -0.6 2.5 1.8
v -0.6 2.7 1.8
v -0.5 0.8 1.8
v -0.5 1 1.8
v -0.5 2.7 1.8
v -0.5 2.9 1.8
v 0.4 0.8 1.8
v 0.4 1 1.8
v 0.4 2.7 1.8
v 0.4 2.9 1.8
v 0.5 1 1.8
v 0.5 1.2 1.8
v 0.5 2.5 1.8
v 0.5 2.7 1.8
v 0.6 1.2 1.8
v 0.6 2.5 1.8
v 1.6 0.4 1.8
v 1.6 3.6 1.8
v -2 3.9 1.8
v -2 4 1.8
v -1.9 3.9 1.8
v -1.9 4 1.8
v 1.9 3.9 1.8
v 1.9 4 1.8
v 2 3.9 1.8
v 2 4 1.8
v -2 0 -1.9
v -2 3.9 -1.9
v -1.9 0 -1.9
v -1.9 3.9 -1.9
v -1.9 4 -1.9
v 1.9 0 -1.9
v 1.9 3.9 -1.9
v 1.9 4 -1.9
v 2 0 -1.9
v 2 3.9 -1.9
v -1.9 0 -2
v -1.9 3.9 -2
v 1.9 0 -2
v 1.9 3.9 -2
v -2 0 2
v 2 0 2
v -2 0 -1.9
v -1.9 0 -1.9
v 1.9 0 -1.9
v 2 0 -1.9
v -1.9 0 -2
v 1.9 0 -2
v -1.6 3.6 1.9
v 1.6 3.6 1.9
v -1.6 3.6 1.8
v 1.6 3.6 1.8
v -1.8 3.8 2
v 1.8 3.8 2
v -1.8 3.8 1.9
v 1.8 3.8 1.9
v -1.8 0.2 2
v 1.8 0.2 2
v -1.8 0.2 1.9
v 1.8 0.2 1.9
v -1.6 0.4 1.9
v 1.6 0.4 1.9
v -1.6 0.4 1.8
v 1.6 0.4 1.8
v -2 3.9 1.8
v -1.9 3.9 1.8
v 1.9 3.9 1.8
v 2 3.9 1.8
v -2 3.9 -1.9
v -1.9 3.9 -1.9
v 1.9 3.9 -1.9
v 2 3.9 -1.9
v -1.9 3.9 -2
v 1.9 3.9 -2
v -2 4 2
v 2 4 2
v -2 4 1.8
v -1.9 4 1.8
v 1.9 4 1.8
v 2 4 1.8
v -1.9 4 -1.9
v 1.9 4 -1.9

# faces
f 3/3/1 2/3/1 1/3/1
f 4/3/1 2/3/1 3/3/1
f 5/3/1 3/3/1 1/3/1
f 6/3/1 3/3/1 5/3/1
f 10/3/1 8/3/1 7/3/1
f 11/3/1 8/3/1 10/3/1
f 12/3/1 10/3/1 9/3/1
f 13/3/1 10/3/1 12/3/1
f 16/3/1 15/3/1 14/3/1
f 17/3/1 15/3/1 16/3/1
f 20/3/1 19/3/1 18/3/1
f 21/3/1 19/3/1 20/3/1
f 22/3/2 23/3/2 24/3/2
f 24/3/2 23/3/2 25/3/2
f 26/3/2 27/3/2 28/3/2
f 28/3/2 27/3/2 29/3/2
f 30/3/2 31/3/2 33/3/2
f 33/3/2 31/3/2 34/3/2
f 32/3/2 33/3/2 35/3/2
f 35/3/2 33/3/2 36/3/2
f 37/3/2 38/3/2 39/3/2
f 39/3/2 38/3/2 40/3/2
f 37/3/2 39/3/2 41/3/2
f 41/3/2 39/3/2 42/3/2
f 45/3/3 44/3/3 43/3/3
f 46/3/3 44/3/3 45/3/3
f 47/3/3 45/3/3 43/3/3
f 48/3/3 44/3/3 46/3/3
f 49/3/3 47/3/3 43/3/3
f 49/3/3 48/3/3 47/3/3
f 50/3/3 44/3/3 48/3/3
f 50/3/3 48/3/3 49/3/3
f 53/3/3 52/3/3 51/3/3
f 54/3/3 52/3/3 53/3/3
f 55/3/3 53/3/3 51/3/3
f 56/3/3 52/3/3 54/3/3
f 57/3/3 55/3/3 51/3/3
f 57/3/3 56/3/3 55/3/3
f 58/3/3 52/3/3 56/3/3
f 58/3/3 56/3/3 57/3/3
f 61/2/3 60/2/3 59/2/3
f 62/2/3 60/2/3 61/2/3
f 63/2/3 61/2/3 59/2/3
f 64/1/3 62/1/3 61/1/3
f 64/2/3 61/2/3 63/2/3
f 65/2/3 60/2/3 62/2/3
f 65/1/3 62/1/3 64/1/3
f 66/2/3 60/2/3 65/2/3
f 67/2/3 63/2/3 59/2/3
f 68/1/3 64/1/3 63/1/3
f 68/2/3 63/2/3 67/2/3
f 68/1/3 65/1/3 64/1/3
f 68/1/3 66/1/3 65/1/3
f 69/2/3 60/2/3 66/2/3
f 69/1/3 66/1/3 68/1/3
f 70/2/3 60/2/3 69/2/3
f 71/2/3 67/2/3 59/2/3
f 71/1/3 68/1/3 67/1/3
f 71/1/3 70/1/3 69/1/3
f 71/1/3 69/1/3 68/1/3
f 72/1/3 70/1/3 71/1/3
f 73/1/3 70/1/3 72/1/3
f 74/2/3 60/2/3 70/2/3
f 74/1/3 70/1/3 73/1/3
f 75/1/3 73/1/3 72/1/3
f 75/2/3 72/2/3 71/2/3
f 76/1/3 73/1/3 75/1/3
f 77/1/3 73/1/3 76/1/3
f 78/2/3 74/2/3 73/2/3
f 78/1/3 73/1/3 77/1/3
f 79/1/3 77/1/3 76/1/3
f 79/2/3 76/2/3 75/2/3
f 80/2/3 78/2/3 77/2/3
f 80/1/3 77/1/3 79/1/3
f 81/2/3 71/2/3 59/2/3
f 81/2/3 75/2/3 71/2/3
f 81/2/3 80/2/3 79/2/3
f 81/2/3 79/2/3 75/2/3
f 82/2/3 60/2/3 74/2/3
f 82/2/3 80/2/3 81/2/3
f 82/2/3 78/2/3 80/2/3
f 82/2/3 74/2/3 78/2/3
f 83/3/4 84/3/4 85/3/4
f 85/3/4 84/3/4 86/3/4
f 87/3/4 88/3/4 89/3/4
f 89/3/4 88/3/4 90/3/4
f 91/3/4 92/3/4 93/3/4
f 93/3/4 92/3/4 94/3/4
f 94/3/4 95/3/4 97/3/4
f 97/3/4 95/3/4 98/3/4
f 96/3/4 97/3/4 99/3/4
f 99/3/4 97/3/4 100/3/4
f 101/3/4 102/3/4 103/3/4
f 103/3/4 102/3/4 104/3/4
f 107/3/5 106/3/5 105/3/5
f 108/3/5 106/3/5 107/3/5
f 109/3/5 106/3/5 108/3/5
f 110/3/5 106/3/5 109/3/5
f 111/3/5 109/3/5 108/3/5
f 112/3/5 109/3/5 111/3/5
f 115/3/5 114/3/5 113/3/5
f 116/3/5 114/3/5 115/3/5
f 119/3/5 118/3/5 117/3/5
f 120/3/5 118/3/5 119/3/5
f 121/3/6 122/3/6 123/3/6
f 123/3/6 122/3/6 124/3/6
f 125/3/6 126/3/6 127/3/6
f 127/3/6 126/3/6 128/3/6
f 129/3/6 130/3/6 133/3/6
f 133/3/6 130/3/6 134/3/6
f 131/3/6 132/3/6 135/3/6
f 135/3/6 132/3/6 136/3/6
f 134/3/6 135/3/6 137/3/6
f 137/3/6 135/3/6 138/3/6
f 139/3/6 140/3/6 141/3/6
f 141/3/6 140/3/6 142/3/6
f 142/3/6 140/3/6 143/3/6
f 143/3/6 140/3/6 144/3/6
f 142/3/6 143/3/6 145/3/6
f 145/3/6 143/3/6 146/3/6
